<svg width="32" height="32" viewBox="0 0 32 32" fill="none" xmlns="http://www.w3.org/2000/svg">
<rect x="6" y="6" width="20" height="20" rx="3" fill="#C8B458"/>
<path d="M13.4297 22V20.3984L14.6172 20.1484V12.75H12.8594L12.7891 13.9766H10.7188V10.625H21.2891V13.9766H19.1953L19.1328 12.75H17.3594V20.1484L18.5469 20.3984V22H13.4297Z" fill="white"/>
<circle cx="24" cy="25" r="4" fill="white"/>
<path d="M21.5723 26V25.5996L21.8652 25.5703L22.4551 24.9473L21.9102 24.3164L21.627 24.2891V23.8867H22.8086V24.2637L22.6738 24.291L22.9023 24.6074L23.1367 24.293L22.9824 24.2637V23.8867H24.1133V24.2891L23.8652 24.3164L23.3438 24.9121L23.9121 25.5703L24.1973 25.5996V26H22.998V25.625L23.1367 25.5957L22.8965 25.293L22.6582 25.5996L22.8086 25.625V26H21.5723ZM24.373 26V25.5605L25.2891 24.5957C25.3711 24.502 25.4362 24.4193 25.4844 24.3477C25.5326 24.276 25.5671 24.2103 25.5879 24.1504C25.61 24.0905 25.6211 24.0326 25.6211 23.9766C25.6211 23.8841 25.5964 23.806 25.5469 23.7422C25.4974 23.6771 25.4232 23.6445 25.3242 23.6445C25.2161 23.6445 25.1361 23.6829 25.084 23.7598C25.0319 23.8353 25.0059 23.9375 25.0059 24.0664H24.3359L24.332 24.0547C24.3281 23.8789 24.3659 23.7201 24.4453 23.5781C24.526 23.4362 24.6419 23.3236 24.793 23.2402C24.944 23.1569 25.1217 23.1152 25.3262 23.1152C25.5306 23.1152 25.7057 23.151 25.8516 23.2227C25.9987 23.293 26.1113 23.3926 26.1895 23.5215C26.2689 23.6491 26.3086 23.7988 26.3086 23.9707C26.3086 24.0879 26.2884 24.196 26.248 24.2949C26.209 24.3926 26.1439 24.4974 26.0527 24.6094C25.9629 24.7214 25.8424 24.8568 25.6914 25.0156L25.2617 25.4707L25.2656 25.4805H25.8301L25.8594 25.2441H26.373V26H24.373Z" fill="black"/>
</svg>
