<svg width="32" height="32" viewBox="0 0 32 32" fill="none" xmlns="http://www.w3.org/2000/svg">
<g clip-path="url(#clip0_3_13)">
<rect x="25" y="6" width="20" height="20" rx="3" fill="#787C7E"/>
<rect x="3" y="6" width="20" height="20" rx="3" fill="#6BAA64"/>
<path d="M8.00781 22V20.3984L9.1875 20.1484V12.4844L8.00781 12.2344V10.625H9.1875H13.1562C14.5885 10.625 15.7057 10.888 16.5078 11.4141C17.3099 11.9401 17.7109 12.724 17.7109 13.7656C17.7109 14.3021 17.5833 14.7839 17.3281 15.2109C17.0729 15.6328 16.6797 15.9531 16.1484 16.1719C16.6016 16.2708 16.9714 16.4401 17.2578 16.6797C17.5443 16.9141 17.7552 17.2005 17.8906 17.5391C18.026 17.8724 18.0938 18.2344 18.0938 18.625C18.0938 19.7396 17.7214 20.5807 16.9766 21.1484C16.2318 21.7161 15.151 22 13.7344 22H8.00781ZM11.9297 19.9141H13.7344C14.276 19.9141 14.6823 19.8073 14.9531 19.5938C15.2292 19.3802 15.3672 19.0547 15.3672 18.6172C15.3672 18.1276 15.2474 17.763 15.0078 17.5234C14.7734 17.2786 14.3932 17.1562 13.8672 17.1562H11.9297V19.9141ZM11.9297 15.3438H13.0391C13.6849 15.3438 14.1667 15.2422 14.4844 15.0391C14.8073 14.8307 14.9688 14.5104 14.9688 14.0781C14.9688 13.6042 14.8177 13.2604 14.5156 13.0469C14.2188 12.8281 13.7656 12.7188 13.1562 12.7188H11.9297V15.3438Z" fill="white"/>
</g>
<defs>
<clipPath id="clip0_3_13">
<rect width="32" height="32" fill="white"/>
</clipPath>
</defs>
</svg>
