<svg width="32" height="32" viewBox="0 0 32 32" fill="none" xmlns="http://www.w3.org/2000/svg">
<path d="M8.90039 23V20.998L9.89648 20.8516L14.1348 8.78125H17.8457L22.0938 20.8516L23.0898 20.998V23H17.7773V20.998L18.7051 20.8223L18.2754 19.2793H13.7051L13.2949 20.8223L14.2227 20.998V23H8.90039ZM14.4277 16.877H17.543L16.1562 12.5703L16 12.0723H15.9414L15.7754 12.6191L14.4277 16.877Z" fill="black"/>
<path d="M16 2.5C13.33 2.5 10.7199 3.29176 8.49981 4.77516C6.27974 6.25856 4.54942 8.36697 3.52763 10.8338C2.50585 13.3006 2.2385 16.015 2.7594 18.6337C3.28031 21.2525 4.56606 23.6579 6.45406 25.5459C8.34207 27.434 10.7475 28.7197 13.3663 29.2406C15.985 29.7615 18.6994 29.4942 21.1662 28.4724C23.633 27.4506 25.7414 25.7203 27.2248 23.5002C28.7082 21.2801 29.5 18.67 29.5 16C29.496 12.4208 28.0724 8.98932 25.5416 6.45844C23.0107 3.92756 19.5792 2.50397 16 2.5ZM26.5 16C26.5022 18.2666 25.7673 20.4725 24.4063 22.285L9.71501 7.59375C11.2755 6.42776 13.1295 5.71883 15.0698 5.54626C17.0101 5.37369 18.9602 5.74428 20.7019 6.61657C22.4436 7.48887 23.9084 8.82848 24.9323 10.4856C25.9563 12.1427 26.4991 14.052 26.5 16ZM5.50001 16C5.49784 13.7334 6.23269 11.5275 7.59376 9.715L22.285 24.4062C20.7246 25.5722 18.8705 26.2812 16.9302 26.4537C14.9899 26.6263 13.0398 26.2557 11.2981 25.3834C9.55637 24.5111 8.09163 23.1715 7.06767 21.5144C6.04372 19.8573 5.50093 17.948 5.50001 16Z" fill="#FF0000"/>
</svg>
